<svg width="110" height="110" viewBox="0 0 110 110" fill="none" xmlns="http://www.w3.org/2000/svg">
<rect width="110" height="110" rx="55" fill="#EBF2F0"/>
<path d="M38.3213 71.758V38.242C38.3213 36.9261 39.3881 35.8594 40.7039 35.8594H71.6784V69.3753H40.7039C39.3881 69.3753 38.3213 70.4421 38.3213 71.758ZM38.3213 71.758C38.3213 73.0739 39.388 74.1406 40.7039 74.1406H71.6784M69.2958 69.3753V74.1406M43.0866 35.8594V69.3753" stroke="#33836E" stroke-width="1.71875" stroke-miterlimit="10" stroke-linecap="round" stroke-linejoin="round"/>
<path d="M57.3827 45.4692V62.1479M47.8521 47.852H66.9133M52.6174 62.1479H62.148M50.2347 47.852L47.8521 52.6173C47.8521 53.9332 48.9188 54.9999 50.2347 54.9999C51.5506 54.9999 52.6174 53.9332 52.6174 52.6173L50.2347 47.852ZM64.5306 47.852L66.9133 52.6173C66.9133 53.9332 65.8466 54.9999 64.5306 54.9999C63.2147 54.9999 62.148 53.9332 62.148 52.6173L64.5306 47.852Z" stroke="#33836E" stroke-width="1.71875" stroke-miterlimit="10" stroke-linecap="round" stroke-linejoin="round"/>
</svg>
