<svg width="110" height="110" viewBox="0 0 110 110" fill="none" xmlns="http://www.w3.org/2000/svg">
<rect width="110" height="110" rx="55" fill="#EBF2F0"/>
<g clip-path="url(#clip0_1222_2153)">
<path d="M63.1198 75C49.2188 74.8386 31.8095 56.9843 35.5498 42.9269C36.3074 38.8057 43.6138 31.6959 48.3645 36.7434C50.2534 38.7445 52.686 40.3029 52.6234 43.3973C52.6371 45.3494 51.7047 46.8588 50.2928 48.123C48.694 49.7218 48.5461 52.2648 49.9487 54.0382C51.6757 56.2238 53.7416 58.2894 55.9274 60.0171C57.7009 61.4195 60.2438 61.2717 61.8426 59.6728L62.4898 59.0259C63.5754 57.9403 65.0238 57.3423 66.5685 57.3423C69.6591 57.2777 71.227 59.717 73.2225 61.6011C78.2624 66.3946 71.1778 73.6305 67.039 74.4159C65.8316 74.8059 64.5174 75 63.1198 75ZM44.4255 36.7176C41.5442 36.6045 37.7015 40.7863 37.2366 43.2593C34.2091 54.7836 46.2612 68.0438 56.6297 71.9673C61.6774 73.7724 66.3066 74.028 70.1181 70.8226C72.6588 68.6474 74.6199 65.4226 72.0074 62.8163L69.432 60.2411C67.9334 58.6776 65.2032 58.678 63.7049 60.2412L63.0577 60.8882C60.8424 63.1035 57.3187 63.3085 54.8613 61.365C53.7167 60.4596 52.6029 59.4671 51.5508 58.415C50.4982 57.3624 49.5057 56.2485 48.6008 55.1043C46.6573 52.6471 46.8623 49.1235 49.0776 46.908L49.7247 46.2609C51.2882 44.7636 51.2877 42.0313 49.7247 40.5338L47.1493 37.9584C46.3201 37.1292 45.4207 36.7176 44.4255 36.7176Z" fill="#33836E"/>
<path d="M67.1925 50.9196C66.7961 50.9196 66.4397 50.6437 66.3532 50.2404C66.0055 48.6141 65.1942 47.1234 64.0175 45.9482C62.8256 44.7542 61.309 43.9369 59.6563 43.5979C59.1915 43.5021 58.8924 43.0477 58.988 42.583C59.0839 42.1182 59.5382 41.8191 60.0029 41.9148C61.9899 42.324 63.7983 43.2986 65.2326 44.733C66.6437 46.1422 67.6164 47.9299 68.0334 49.8801C68.1329 50.344 67.8375 50.8008 67.3735 50.9003C67.3128 50.9133 67.2521 50.9196 67.1925 50.9196Z" fill="#33836E"/>
<path d="M72.0465 55.7468C71.9904 55.7468 71.9336 55.7414 71.8765 55.7299C71.4113 55.6364 71.1098 55.1836 71.2033 54.7183C72.0982 50.2612 70.7133 45.6813 67.4989 42.4667C64.2785 39.2463 59.6909 37.8629 55.227 38.7664C54.7618 38.8609 54.3086 38.5598 54.2145 38.0946C54.1204 37.6295 54.4211 37.1762 54.8862 37.0821C59.9162 36.064 65.0853 37.6227 68.714 41.2515C72.3361 44.8737 73.8965 50.0344 72.8881 55.0565C72.8061 55.4648 72.4474 55.7468 72.0465 55.7468Z" fill="#33836E"/>
</g>
<defs>
<clipPath id="clip0_1222_2153">
<rect width="40" height="40" fill="white" transform="translate(35 35)"/>
</clipPath>
</defs>
</svg>
